<?xml version="1.0" encoding="UTF-8"?>
<svg id="Calque_2" xmlns="http://www.w3.org/2000/svg" viewBox="0 0 2170.15 568.14">
  <defs>
    <style>
      .cls-1, .cls-2 {
        fill: #fff;
      }

      .cls-2 {
        fill-rule: evenodd;
      }
    </style>
  </defs>
  <g id="Calque_1-2" data-name="Calque_1">
    <g>
      <g>
        <path class="cls-1" d="M923.1,375.56c0,10.14-8.13,18.58-18.27,18.58h-91.25c-10.81,0-19.92-9.11-19.92-19.92v-199.73c0-11.17,9.11-19.95,19.92-19.95s19.95,8.78,19.95,19.95v182.49h71.3c10.14,0,18.27,8.1,18.27,18.58Z"/>
        <path class="cls-1" d="M1090.73,357.31c0,3.72-2.04,8.44-5.42,12.16-12.85,15.56-36.15,28.05-64.88,28.05-51.04,0-89.57-39.53-89.57-89.55s38.19-89.57,89.57-89.57c26.35,0,46.97,10.48,58.45,20.95,4.05,3.72,6.76,8.8,6.76,14.19,0,4.72-1.34,8.8-5.4,13.52l-52.05,61.85c-3.72,4.39-7.77,6.07-12.85,6.07-10.14,0-17.57-7.1-17.57-16.88,0-4.07,1.01-8.13,4.05-11.17l40.9-47.98c-5.75-4.05-14.86-6.09-22.3-6.09-29.08,0-52.05,24.33-52.05,55.09s22.63,55.07,52.05,55.07c15.87,0,27.71-6.76,35.82-15.2,5.4-4.39,9.11-8.44,16.21-8.44,10.48,0,18.27,7.43,18.27,17.91Z"/>
        <path class="cls-1" d="M1419.9,235.64c0,9.47-7.79,17.24-17.24,17.24-22.32,0-38.86,14.86-38.86,44.62v80.77c0,10.48-8.13,18.92-18.6,18.92s-18.58-8.44-18.58-18.92v-80.77c0-48,32.1-79.09,76.05-79.09,9.45,0,17.24,7.43,17.24,17.24Z"/>
        <path class="cls-1" d="M1585.82,297.16v81.11c0,10.48-8.44,18.92-18.58,18.92s-18.6-8.44-18.6-18.92v-82.47c0-28.05-17.24-42.92-38.86-42.92-2.56,0-5.08.21-7.5.63-17.99,3.09-31.37,17.57-31.37,42.29v82.47c0,10.48-8.1,18.92-18.58,18.92-2.16,0-4.2-.36-6.11-1.03-7.35-2.52-12.47-9.55-12.47-17.89v-81.11c0-45.52,29.67-75.16,68.7-78.44,2.41-.21,4.85-.31,7.33-.31,42.58,0,76.05,30.42,76.05,78.75Z"/>
        <path class="cls-1" d="M1766.28,329.26c0,38.19-32.77,68.26-75.02,68.26s-74.01-31.77-74.01-55.07c0-10.83,8.78-19.61,19.61-19.61,9.11,0,14.19,5.06,17.22,11.15,4.75,11.15,14.55,26.37,37.18,26.37,20.62,0,35.15-15.89,35.15-33.8,0-21.63-18.58-29.39-36.15-34.81l-17.24-5.06c-23.33-7.45-53.75-22.65-53.75-66.93,0-37.5,31.09-65.55,71.99-65.55,42.92,0,70.63,30.07,70.63,52.38,0,10.81-8.78,19.59-19.59,19.59-9.13,0-13.86-5.06-16.57-11.15-4.72-10.48-13.86-24-34.47-24-18.92,0-32.1,14.53-32.1,31.09,0,20.62,19.25,28.39,33.45,32.44l14.89,4.75c25.01,7.77,58.79,21.29,58.79,69.96Z"/>
        <path class="cls-1" d="M1951.82,237.34v81.11c0,48.31-33.45,79.07-76.03,79.07s-76.05-30.76-76.05-79.07v-81.11c0-10.48,8.1-18.6,18.58-18.6s18.58,8.13,18.58,18.6v82.45c0,28.39,17.24,43.25,38.88,43.25s38.86-14.86,38.86-43.25v-82.45c0-10.48,8.1-18.6,18.58-18.6s18.58,8.13,18.58,18.6Z"/>
        <path class="cls-1" d="M1419.9,235.64c0,9.47-7.79,17.24-17.24,17.24-22.32,0-38.86,14.86-38.86,44.62v80.77c0,10.48-8.13,18.92-18.6,18.92s-18.58-8.44-18.58-18.92v-80.77c0-48,32.1-79.09,76.05-79.09,9.45,0,17.24,7.43,17.24,17.24Z"/>
        <path class="cls-1" d="M1503.88,235.64c0,6.09-.55,12.07-1.6,17.87-17.99,3.09-31.37,17.57-31.37,42.29v14.53c-6.91,6.32-14.68,11.67-23.14,15.91v52.03c0,6.11-.52,12.07-1.55,17.89-7.35-2.52-12.47-9.55-12.47-17.89v-81.11c0-45.52,29.67-75.16,68.7-78.44.94,5.5,1.43,11.15,1.43,16.92Z"/>
        <path class="cls-1" d="M1268.14,218.74c-2.77,0-5.38.57-7.71,1.6-6.49,2.86-10.88,9.3-10.88,17.01v2.35c-14.87-13.52-34.47-21.29-56.1-21.29-48.67,0-85.49,39.53-85.49,89.57s36.83,89.55,85.49,89.55c18.46,0,35.44-5.65,49.26-15.54,2.37-1.66,4.66-3.49,6.84-5.42v1.7c0,10.48,8.1,18.92,18.58,18.92s18.6-8.44,18.6-18.92v-140.92c0-10.48-8.13-18.6-18.6-18.6ZM1249.56,307.97c0,10.37-2.5,19.9-6.93,28.01-8.9,16.46-25.64,27.06-45.12,27.06-29.06,0-52.05-23.64-52.05-55.07s22.99-55.09,52.05-55.09c20.07,0,37.1,11.32,45.83,28.58,3.63,7.14,5.82,15.33,6.21,24.15v2.37Z"/>
        <path class="cls-1" d="M1402.66,218.41c-43.94,0-76.05,31.09-76.05,79.09v80.77c0,10.48,8.1,18.92,18.58,18.92s18.6-8.44,18.6-18.92v-80.77c0-29.75,16.54-44.62,38.86-44.62,9.45,0,17.24-7.77,17.24-17.24s-7.79-17.24-17.24-17.24Z"/>
        <path class="cls-1" d="M1509.78,218.41c-2.48,0-4.91.1-7.33.31-39.03,3.28-68.7,32.92-68.7,78.44v81.11c0,8.34,5.12,15.37,12.47,17.89,1.91.67,3.95,1.03,6.11,1.03,10.48,0,18.58-8.44,18.58-18.92v-82.47c0-24.71,13.37-39.2,31.37-42.29,2.41-.42,4.93-.63,7.5-.63,21.63,0,38.86,14.86,38.86,42.92v82.47c0,10.48,8.13,18.92,18.6,18.92s18.58-8.44,18.58-18.92v-81.11c0-48.33-33.47-78.75-76.05-78.75Z"/>
        <path class="cls-1" d="M2084.64,218.41c-21.63,0-41.24,7.77-56.1,21.29v-2.35c0-10.48-8.1-18.6-18.58-18.6s-18.58,8.13-18.58,18.6v205.46c0,10.48,8.1,18.6,18.58,18.6s18.58-8.13,18.58-18.6v-66.24c14.87,13.19,34.47,20.95,56.1,20.95,48.67,0,85.52-39.53,85.52-89.55s-36.85-89.57-85.52-89.57ZM2080.59,363.04c-29.06,0-52.05-23.64-52.05-55.07v-2.37c1.01-30.09,23.66-52.72,52.05-52.72s52.05,23.66,52.05,55.09-22.99,55.07-52.05,55.07Z"/>
      </g>
      <g>
        <path class="cls-1" d="M376.58,568.14c-31.05,0-62.77-3.83-94.29-11.39-9.64-2.31-17.13-11.06-16.7-19.51.37-7.23,6.23-12.28,14.26-12.28,1.55,0,3.15.19,4.75.58,28.35,6.8,56.87,10.24,84.78,10.24,16.45,0,32.6-1.22,47.99-3.63,58.02-9.08,96.99-33.12,119.47-51.68,2.59-2.14,5.97-3.27,9.79-3.27,5.44,0,10.99,2.28,15.22,6.25,5.89,5.53,7.85,13.15,4.89,18.96-.76,1.49-1.81,2.79-3.13,3.88-36.05,29.78-82.23,49.77-133.54,57.8-17.16,2.69-35.16,4.05-53.5,4.05Z"/>
        <path class="cls-1" d="M564.96,501.51c-.62,1.21-1.49,2.31-2.62,3.25-35.77,29.55-81.62,49.39-132.57,57.36-46.13,7.22-96.96,4.69-147.01-7.31-8.76-2.1-15.55-9.92-15.17-17.46.38-7.54,7.79-11.96,16.55-9.86,45.47,10.9,91.65,13.2,133.54,6.64,58.47-9.15,97.76-33.39,120.43-52.12,5.66-4.68,15.68-3.38,22.37,2.9,5.36,5.03,6.96,11.72,4.48,16.6Z"/>
        <path class="cls-1" d="M135.92,474.79c-5.36,0-10.82-2.24-14.97-6.16-41.8-39.38-74.81-85.75-95.48-134.11C6.74,290.68-1.94,244.75.36,201.68c.39-7.2,6.22-12.23,14.2-12.23,1.52,0,3.08.19,4.63.56,9.52,2.26,16.9,10.93,16.45,19.32-2.06,38.55,5.72,79.69,22.5,118.96,23.46,54.88,59.63,95.85,85.85,120.55,5.8,5.47,7.72,13.03,4.78,18.81-.75,1.48-1.79,2.77-3.1,3.86-2.58,2.15-5.95,3.28-9.76,3.28Z"/>
        <path class="cls-1" d="M147,466.74c-.61,1.21-1.48,2.3-2.6,3.23-5.61,4.66-15.49,3.41-22.08-2.79-41.6-39.19-74.45-85.33-95.01-133.44C8.7,290.18.07,244.55,2.36,201.79c.4-7.48,7.73-11.89,16.37-9.84,8.64,2.05,15.32,9.78,14.92,17.27-2.08,38.86,5.75,80.3,22.66,119.85,23.59,55.2,59.96,96.39,86.32,121.22,5.27,4.97,6.83,11.61,4.37,16.45Z"/>
        <path class="cls-1" d="M626.79,356.39c-1.57,0-3.2-.21-4.84-.62-9.19-2.33-16.2-10.28-15.95-18.1,1.1-35.07-7.13-72.74-23.81-108.92-23.31-50.59-58.32-88.8-83.57-111.94-4.03-3.69-6.25-8.36-6.09-12.81.12-3.29,1.57-6.21,4.1-8.21,2.31-1.84,5.34-2.81,8.77-2.81,5.13,0,10.62,2.23,14.7,5.97,40.27,36.9,72.42,79.98,92.97,124.57,18.63,40.43,27.83,82.55,26.6,121.8-.05,1.7-.45,3.3-1.18,4.73-2.02,3.98-6.39,6.35-11.69,6.35Z"/>
        <path class="cls-1" d="M636.69,349.14c-2.18,4.28-7.79,6.33-14.25,4.69-8.19-2.08-14.66-9.28-14.44-16.1,1.11-35.38-7.19-73.36-23.99-109.82-23.45-50.89-58.65-89.31-84.04-112.58-6.35-5.81-7.29-13.86-2.1-17.98,5.18-4.12,14.53-2.74,20.88,3.07,40.08,36.72,72.06,79.58,92.5,123.93,18.5,40.15,27.64,81.96,26.41,120.9-.05,1.44-.38,2.74-.97,3.89Z"/>
        <path class="cls-1" d="M124,84.47c-4.83,0-9.72-2.02-13.41-5.54-3.61-3.43-5.6-7.87-5.48-12.18.1-3.43,1.57-6.52,4.13-8.68C141.57,30.75,182.79,12.16,228.43,4.31c16.63-2.86,34.08-4.31,51.87-4.31,26.19,0,52.86,3.1,79.27,9.21,8.65,2,15.29,9.92,14.81,17.65-.1,1.68-.53,3.26-1.26,4.7-2.13,4.19-6.59,6.69-11.92,6.69-1.33,0-2.69-.16-4.06-.47-23.72-5.49-47.66-8.27-71.17-8.27-15.94,0-31.57,1.3-46.45,3.86-51.53,8.86-86.34,30.99-106.46,48-2.41,2.03-5.54,3.11-9.07,3.11Z"/>
        <path class="cls-1" d="M371.35,30.65c-2.22,4.35-7.63,6.59-13.74,5.17-40.22-9.31-81.17-10.84-118.41-4.43-51.97,8.94-87.1,31.28-107.41,48.44-5.08,4.29-13.95,3.24-19.82-2.35-5.87-5.59-6.51-13.59-1.44-17.88,32.06-27.09,72.94-45.53,118.24-53.32,41-7.05,86.08-5.37,130.35,4.88,7.75,1.79,13.69,8.77,13.27,15.58-.09,1.44-.45,2.75-1.04,3.92Z"/>
        <path class="cls-1" d="M431.15,131.16c-12.38,0-24.25-4-34.31-11.56-26.17-19.66-32.1-57.81-13.21-85.04,10.99-15.84,28.79-25.3,47.61-25.3,12.38,0,24.25,4,34.31,11.56,26.17,19.66,32.1,57.81,13.21,85.04-10.99,15.84-28.79,25.3-47.61,25.3h0ZM431.25,32.03c-11.75,0-22.86,5.9-29.72,15.79-11.86,17.1-8.15,41.04,8.26,53.37,6.26,4.7,13.65,7.19,21.35,7.19,11.75,0,22.86-5.9,29.72-15.79,11.86-17.1,8.15-41.04-8.26-53.37-6.26-4.7-13.65-7.19-21.35-7.19Z"/>
        <path class="cls-1" d="M399.89,46.68c12.47-17.97,36.65-22.03,53.92-9.06,17.27,12.97,21.17,38.15,8.7,56.11-12.47,17.97-36.65,22.03-53.92,9.06-17.27-12.97-21.17-38.15-8.7-56.11M385.28,35.7c-18.31,26.39-12.6,63.24,12.77,82.3,25.36,19.06,60.77,13.11,79.08-13.28,18.31-26.39,12.6-63.24-12.77-82.3-25.36-19.06-60.77-13.11-79.08,13.28h0Z"/>
        <path class="cls-1" d="M604.24,485.1c-12.38,0-24.25-4-34.31-11.56-26.17-19.66-32.1-57.81-13.21-85.04,10.99-15.84,28.79-25.3,47.61-25.3,12.38,0,24.25,4,34.31,11.56,26.17,19.66,32.1,57.81,13.21,85.04-10.99,15.84-28.79,25.3-47.61,25.3h0ZM604.34,385.97c-11.75,0-22.86,5.9-29.72,15.79-11.86,17.1-8.15,41.04,8.26,53.37,6.26,4.7,13.65,7.19,21.35,7.19,11.75,0,22.86-5.9,29.72-15.79,11.86-17.1,8.15-41.04-8.26-53.37-6.26-4.7-13.65-7.19-21.35-7.19Z"/>
        <path class="cls-1" d="M572.98,400.62c12.47-17.97,36.65-22.03,53.92-9.06s21.17,38.15,8.7,56.11c-12.47,17.97-36.65,22.03-53.92,9.06-17.27-12.97-21.17-38.15-8.7-56.11M558.37,389.64c-18.31,26.39-12.6,63.24,12.77,82.3,25.36,19.06,60.77,13.11,79.08-13.28,18.31-26.39,12.6-63.24-12.77-82.3-25.36-19.06-60.77-13.11-79.08,13.28h0Z"/>
        <path class="cls-1" d="M206.72,561.68c-12.38,0-24.25-4-34.31-11.56-26.17-19.66-32.1-57.81-13.21-85.04,10.99-15.84,28.79-25.3,47.61-25.3,12.38,0,24.25,4,34.31,11.56,26.17,19.66,32.1,57.81,13.21,85.04-10.99,15.84-28.79,25.3-47.61,25.3h0ZM206.82,462.55c-11.75,0-22.86,5.9-29.72,15.79-11.86,17.1-8.15,41.04,8.26,53.37,6.26,4.7,13.65,7.19,21.35,7.19,11.75,0,22.86-5.9,29.72-15.79,11.86-17.1,8.15-41.04-8.26-53.37-6.26-4.7-13.65-7.19-21.36-7.19Z"/>
        <path class="cls-1" d="M175.46,477.2c12.47-17.97,36.65-22.03,53.92-9.06,17.27,12.97,21.17,38.15,8.7,56.11-12.47,17.97-36.65,22.03-53.92,9.06-17.27-12.97-21.17-38.15-8.7-56.11M160.85,466.23c-18.31,26.39-12.6,63.24,12.77,82.3,25.36,19.06,60.77,13.11,79.08-13.28,18.31-26.39,12.6-63.24-12.77-82.3-25.36-19.06-60.77-13.11-79.08,13.28h0Z"/>
        <path class="cls-1" d="M67.61,195.78c-12.38,0-24.25-4-34.31-11.56C7.13,164.55,1.2,126.41,20.09,99.18c10.99-15.84,28.79-25.3,47.61-25.3,12.38,0,24.25,4,34.31,11.56,26.17,19.66,32.1,57.81,13.21,85.04-10.99,15.84-28.79,25.3-47.61,25.3h0ZM67.71,96.65c-11.75,0-22.86,5.9-29.72,15.79-11.86,17.1-8.15,41.04,8.26,53.37,6.26,4.7,13.65,7.19,21.35,7.19,11.75,0,22.86-5.9,29.72-15.79,11.86-17.1,8.15-41.04-8.26-53.37-6.26-4.7-13.65-7.19-21.35-7.19Z"/>
        <path class="cls-1" d="M36.34,111.3c12.47-17.97,36.65-22.03,53.92-9.06,17.27,12.97,21.17,38.15,8.7,56.11s-36.65,22.03-53.92,9.06c-17.27-12.97-21.17-38.15-8.7-56.11M21.73,100.32c-18.31,26.39-12.6,63.24,12.77,82.3,25.36,19.06,60.77,13.11,79.08-13.28,18.31-26.39,12.6-63.24-12.77-82.3-25.36-19.06-60.77-13.11-79.08,13.28h0Z"/>
        <path class="cls-2" d="M311.01,371.49c-26.01,0-49.71-5.33-65.03-14.63-3.75-2.22-6.11-6.16-6.31-10.53l-3.23-51.4,76.56,24.28c1.9.63,3.86.94,5.83.94,2.74,0,5.49-.62,7.96-1.8l70.68-32.68,2.37-.15.18,1.99,3.05,48.57c.36,4.31-1.5,8.52-4.96,11.22-16.13,12.96-44.13,21.87-74.86,23.8-4.08.26-8.2.39-12.24.39ZM423.08,355.5c-4.01,0-7.31-3.13-7.52-7.14l-1.88-29.91c-.3-3.99,1.68-7.76,5.03-9.82l-2.76-43.86-90.23,41.66c-2.34,1.12-4.97,1.72-7.59,1.72-1.9,0-3.77-.31-5.57-.91l-114.74-36.37c-3.01-.99-5.07-3.65-5.26-6.79-.2-3.14,1.51-6.04,4.35-7.39l111.95-51.7.02.21c1.61-.47,3.28-.71,4.95-.71,1.9,0,3.77.31,5.57.91l114.76,36.45c3.01.98,5.06,3.65,5.26,6.79.2,3.14-1.51,6.04-4.35,7.39l-10.17,4.7,2.97,47.25c3.66,1.58,6.18,5.11,6.41,9.18l1.88,29.92c.3,4.09-2.68,7.62-6.79,8.03l-6.02.38h-.28Z"/>
        <path class="cls-2" d="M398.02,287.64l3.05,48.57c.3,3.67-1.28,7.25-4.19,9.51-15.3,12.29-42.41,21.41-73.75,23.39-31.34,1.97-59.4-3.82-76.1-13.96-3.17-1.88-5.18-5.23-5.35-8.91l-3.05-48.52,73.78,23.4c5.02,1.66,10.48,1.32,15.25-.96l70.32-32.51h.05ZM420.92,309.75c-3.41,1.44-5.52,4.89-5.25,8.58l1.88,29.93c.16,3,2.68,5.32,5.69,5.24l5.95-.37c2.99-.29,5.2-2.91,4.98-5.91l-1.88-29.93c-.21-3.71-2.75-6.87-6.33-7.86l-3.14-49.93,11.4-5.27c2.09-.99,3.36-3.15,3.21-5.45s-1.67-4.29-3.87-5.01l-114.79-36.46c-3.85-1.29-8.04-1.02-11.69.74h0s-109.3,50.47-109.3,50.47c-2.08.99-3.36,3.15-3.21,5.45.14,2.3,1.68,4.29,3.87,5.01l114.77,36.38c3.85,1.29,8.04,1.02,11.69-.74l92.88-42.88,3.02,48.01h.13Z"/>
      </g>
    </g>
  </g>
</svg>